<?xml version="1.0" standalone="no"?>
<!DOCTYPE svg PUBLIC "-//W3C//DTD SVG 20010904//EN"
 "http://www.w3.org/TR/2001/REC-SVG-20010904/DTD/svg10.dtd">
<svg version="1.0" xmlns="http://www.w3.org/2000/svg"
 width="401.000000pt" height="401.000000pt" viewBox="0 0 401.000000 401.000000"
 preserveAspectRatio="xMidYMid meet">
<metadata>
Created by potrace 1.14, written by Peter Selinger 2001-2017
</metadata>
<g transform="translate(0.000000,401.000000) scale(0.100000,-0.100000)"
fill="#000000" stroke="none">
<path d="M1967 3954 c-1 -1 -56 -4 -121 -8 -66 -4 -122 -8 -125 -10 -3 -2 -26
-7 -51 -10 -58 -8 -75 -11 -130 -26 -25 -7 -52 -13 -61 -15 -80 -16 -259 -85
-384 -149 -568 -291 -963 -840 -1049 -1456 -3 -19 -8 -57 -12 -85 -8 -65 -9
-301 0 -384 17 -173 73 -403 130 -537 56 -129 168 -335 218 -399 5 -5 36 -46
70 -89 130 -168 341 -352 535 -467 565 -333 1257 -366 1854 -86 42 19 106 54
143 76 36 23 69 41 72 41 2 0 10 4 17 10 7 5 57 43 112 84 285 211 522 524
652 859 36 95 88 286 99 364 3 26 8 50 9 53 8 13 18 181 18 280 0 141 -9 244
-34 366 -5 28 -12 61 -14 75 -15 83 -83 272 -138 389 -57 119 -91 175 -184
310 -111 160 -320 360 -506 484 -207 137 -510 262 -712 293 -16 2 -41 6 -55 9
-76 14 -343 35 -353 28z"/>
</g>
</svg>
