<svg width="400" height="400" xmlns="http://www.w3.org/2000/svg" xmlns:xlink="http://www.w3.org/1999/xlink" xml:space="preserve" overflow="hidden"><g transform="translate(-440 -160)"><g><path d="M124.933 378.533C111.2 375.2 101.333 362.533 101.333 348.133 101.333 334.133 107.867 324 120.267 318.667 150.267 305.733 177.733 343.067 156.533 367.733 148.4 377.2 136.4 381.333 124.933 378.533Z" fill="#D9D9D9" fill-rule="nonzero" fill-opacity="1" transform="matrix(1 0 0 -1 440 560)"/><path d="M276.933 352.4C276.4 352 276 341.733 276 329.733L276 308 254 308 232 308 232 293.333 232 278.667 254 278.667 276 278.667 276.267 256.4 276.667 234 291.6 233.6 306.667 233.2 306.933 255.6 307.333 278 329.733 278.4 352 278.667 352 293.333 352 308 329.733 308.267 307.333 308.667 306.933 331.067 306.667 353.333 292.133 353.333C284.267 353.333 277.333 352.933 276.933 352.4Z" fill="#D9D9D9" fill-rule="nonzero" fill-opacity="1" transform="matrix(1 0 0 -1 440 560)"/><path d="M120 307.067C98.2667 303.467 73.2 290.8 69.4667 281.733 67.2 275.867 45.3333 181.333 45.3333 177.067 45.3333 174.267 46.8 171.6 49.8667 168.533 53.7333 164.667 55.3333 164 60.4 164 66.4 164 72 167.067 74.5333 171.733 75.2 172.933 79.0667 188.133 83.2 205.333 87.3333 222.533 91.2 237.867 91.8667 239.333 92.6667 240.933 93.2 200 93.2 132.4L93.3333 22.6667 108.667 22.6667 124 22.6667 124.267 93.7333 124.667 164.667 132.4 165.067 140 165.467 140 94 140 22.6667 156 22.6667 172 22.6667 172.133 133.067 172.267 243.333 181.2 207.467C189.067 175.733 190.533 171.333 193.733 168.533 201.867 161.6 212.667 163.733 217.867 173.467L220.4 178.133 208.267 230C201.467 258.4 195.067 283.2 194 284.933 191.2 289.067 179.067 296.8 168.8 301.067 155.2 306.533 133.2 309.333 120 307.067Z" fill="#D9D9D9" fill-rule="nonzero" fill-opacity="1" transform="matrix(1 0 0 -1 440 560)"/><path d="M284.933 147.2 258.533 125.333 237.867 125.333 217.333 125.333 217.333 96.6667 217.333 68 238.133 68 258.933 68 285.467 46C300 33.8667 312.267 24 312.667 24 313.067 24 313.333 56.6667 313.333 96.6667 313.333 136.667 312.933 169.333 312.4 169.2 311.733 169.2 299.467 159.333 284.933 147.2Z" fill="#D9D9D9" fill-rule="nonzero" fill-opacity="1" transform="matrix(1 0 0 -1 440 560)"/><path d="M346.8 131.467C344 128.533 342.933 126.667 344 126 347.067 124.133 352.133 114.267 354.133 106.4 357.467 93.6 354.533 78.9333 346.667 69.2L342.8 64.4 347.333 60 351.733 55.7333 356 61.4667C365.333 74.4 369.333 90.1333 366.8 104.4 365.333 113.2 357.733 130 353.6 133.733 351.333 135.867 350.933 135.733 346.8 131.467Z" fill="#D9D9D9" fill-rule="nonzero" fill-opacity="1" transform="matrix(1 0 0 -1 440 560)"/><path d="M330.133 114.8 326.533 110.933 329.2 105.867C332.8 99.2 332.8 91.3333 329.2 85.4667L326.4 80.9333 330.4 76.9333C335.2 72.1333 336.533 72.8 340.8 81.8667 346 92.9333 344.133 109.067 336.8 115.867L333.867 118.667 330.133 114.8Z" fill="#D9D9D9" fill-rule="nonzero" fill-opacity="1" transform="matrix(1 0 0 -1 440 560)"/></g></g></svg>