<svg width="38" height="38" xmlns="http://www.w3.org/2000/svg" xmlns:xlink="http://www.w3.org/1999/xlink" xml:space="preserve" overflow="hidden"><g transform="translate(-592 -312)"><g><path d="M618.917 323.954C617.967 323.954 617.175 323.163 617.215 322.173 617.215 321.223 618.006 320.431 618.956 320.431 619.906 320.431 620.698 321.223 620.698 322.173 620.698 322.648 620.5 323.083 620.183 323.4 619.827 323.756 619.392 323.954 618.917 323.954ZM617.215 318.452C616.344 318.769 615.671 319.442 615.235 320.233 614.681 321.302 614.602 322.529 615.037 323.638L616.938 327.754 618.204 330.367C618.323 330.644 618.6 330.802 618.917 330.802 619.233 330.802 619.51 330.644 619.629 330.367L620.896 327.754 622.796 323.677C622.994 323.202 623.073 322.688 623.073 322.173 623.073 319.402 620.223 317.304 617.215 318.452Z" fill="#D9D9D9" fill-rule="nonzero" fill-opacity="1"/><path d="M610.208 340.817 603.875 337.65 603.875 324.746 610.208 327.913 610.208 340.817ZM602.292 337.65 597.542 340.025 597.542 327.121 602.292 324.746 602.292 337.65ZM624.221 324.35 623.231 326.487 624.458 327.121 624.458 340.025 619.708 337.65 619.708 332.385 618.125 332.385 618.125 337.65 611.792 340.817 611.792 327.913 614.602 326.487 613.612 324.35 611 325.656 603.083 321.698 595.167 325.656 595.167 343.865 603.083 339.906 611 343.865 618.917 339.906 626.833 343.865 626.833 325.656 624.221 324.35Z" fill="#D9D9D9" fill-rule="nonzero" fill-opacity="1"/></g></g></svg>