<svg width="48" height="45" xmlns="http://www.w3.org/2000/svg" xmlns:xlink="http://www.w3.org/1999/xlink" xml:space="preserve" overflow="hidden"><g transform="translate(-432 -296)"><g><g><g><g><path d="M34.8281 13.9688 33 15.7969C36.7969 19.5938 36.7969 25.7812 33 29.5781L34.8281 31.4062C39.6094 26.5781 39.6562 18.7969 34.8281 13.9688Z" fill="#1F2A31" fill-rule="nonzero" fill-opacity="1" transform="matrix(1.02222 0 0 1 433 296)"/><path d="M29.3906 25.9688 31.2188 27.7969C33.9844 25.0781 34.0312 20.5781 31.3125 17.8125 31.2656 17.7656 31.2188 17.7188 31.2188 17.7188L29.3906 19.5469C31.1719 21.3281 31.1719 24.1875 29.3906 25.9688Z" fill="#1F2A31" fill-rule="nonzero" fill-opacity="1" transform="matrix(1.02222 0 0 1 433 296)"/><path d="M5.71875 16.2188 5.71875 28.7812 14.8125 28.7812 26.5781 38.4375 26.5781 6.5625 14.8125 16.2188Z" fill="#1F2A31" fill-rule="nonzero" fill-opacity="1" transform="matrix(1.02222 0 0 1 433 296)"/></g></g></g></g></g></svg>