<svg width="39" height="39" xmlns="http://www.w3.org/2000/svg" xmlns:xlink="http://www.w3.org/1999/xlink" xml:space="preserve" overflow="hidden"><g transform="translate(-318 -321)"><g><g><g><g><path d="M351.854 331.896C351.854 332.989 350.968 333.875 349.875 333.875 348.782 333.875 347.896 332.989 347.896 331.896 347.896 330.803 348.782 329.917 349.875 329.917 350.968 329.917 351.854 330.803 351.854 331.896Z" fill="#1F2A31" fill-rule="nonzero" fill-opacity="1"/><path d="M328.104 331.896C328.104 332.989 327.218 333.875 326.125 333.875 325.032 333.875 324.146 332.989 324.146 331.896 324.146 330.803 325.032 329.917 326.125 329.917 327.218 329.917 328.104 330.803 328.104 331.896Z" fill="#1F2A31" fill-rule="nonzero" fill-opacity="1"/><path d="M343.938 331.896C343.938 332.989 343.051 333.875 341.958 333.875 340.865 333.875 339.979 332.989 339.979 331.896 339.979 330.803 340.865 329.917 341.958 329.917 343.051 329.917 343.938 330.803 343.938 331.896Z" fill="#1F2A31" fill-rule="nonzero" fill-opacity="1"/><path d="M336.021 331.896C336.021 332.989 335.135 333.875 334.042 333.875 332.949 333.875 332.062 332.989 332.062 331.896 332.062 330.803 332.949 329.917 334.042 329.917 335.135 329.917 336.021 330.803 336.021 331.896Z" fill="#1F2A31" fill-rule="nonzero" fill-opacity="1"/><path d="M354.585 341.594 353.319 335.815C353.279 335.656 353.2 335.498 353.042 335.379 352.567 335.023 352.052 334.706 351.458 334.548 350.944 334.39 350.429 334.271 349.875 334.271 349.321 334.271 348.767 334.35 348.292 334.548 347.698 334.746 347.183 335.023 346.708 335.379 346.55 335.498 346.471 335.656 346.431 335.815L345.917 338.15 345.402 335.815C345.362 335.656 345.283 335.498 345.125 335.379 344.65 335.023 344.135 334.706 343.542 334.548 343.027 334.39 342.513 334.271 341.958 334.271 341.404 334.271 340.85 334.35 340.375 334.548 339.781 334.746 339.267 335.023 338.792 335.379 338.633 335.498 338.554 335.656 338.515 335.815L338 338.11 338 338.15 337.485 335.815C337.446 335.656 337.367 335.498 337.208 335.379 336.733 335.023 336.219 334.706 335.625 334.548 335.11 334.39 334.596 334.271 334.042 334.271 333.487 334.271 332.933 334.35 332.458 334.548 331.865 334.746 331.35 335.023 330.875 335.379 330.717 335.498 330.638 335.656 330.598 335.815L330.083 338.11 329.569 335.815C329.529 335.656 329.45 335.498 329.292 335.379 328.817 335.023 328.302 334.706 327.708 334.548 327.194 334.39 326.679 334.271 326.125 334.271 325.571 334.271 325.017 334.35 324.542 334.548 323.948 334.746 323.433 335.023 322.958 335.379 322.8 335.498 322.721 335.656 322.681 335.815L321.415 341.554C321.296 341.99 321.573 342.465 322.048 342.544 322.087 342.544 322.127 342.544 322.167 342.544 322.523 342.544 322.84 342.306 322.958 341.91L324.146 336.646 324.146 339.456 322.958 345.354 324.146 345.354 324.146 352.083 325.729 352.083 325.729 345.354 326.521 345.354 326.521 352.083 328.104 352.083 328.104 345.354 329.292 345.354 328.104 339.456 328.104 336.646 329.292 341.95C329.371 342.306 329.688 342.583 330.044 342.583 330.4 342.583 330.717 342.346 330.796 341.95L332.062 336.646 332.062 342.979 332.062 352.083 333.646 352.083 333.646 342.979 334.438 342.979 334.438 352.083 336.021 352.083 336.021 342.979 336.021 336.646 337.208 341.95C337.288 342.306 337.604 342.583 338 342.583 338 342.583 338 342.583 338 342.583 338.356 342.583 338.673 342.346 338.752 341.95L339.979 336.646 339.979 339.496 338.792 345.354 339.979 345.354 339.979 352.083 341.562 352.083 341.562 345.354 342.354 345.354 342.354 352.083 343.938 352.083 343.938 345.354 345.125 345.354 343.938 339.417 343.938 336.646 345.125 341.95C345.204 342.306 345.521 342.583 345.917 342.583 345.917 342.583 345.917 342.583 345.917 342.583 345.917 342.583 345.917 342.583 345.917 342.583 346.273 342.583 346.59 342.346 346.708 341.95L347.896 336.646 347.896 342.979 347.896 352.083 349.479 352.083 349.479 342.979 350.271 342.979 350.271 352.083 351.854 352.083 351.854 342.979 351.854 336.646 353.042 341.95C353.121 342.306 353.438 342.583 353.833 342.583 353.913 342.583 354.031 342.583 354.11 342.544 354.467 342.385 354.665 341.99 354.585 341.594Z" fill="#1F2A31" fill-rule="nonzero" fill-opacity="1"/></g></g></g></g></g></svg>