<svg width="38" height="39" xmlns="http://www.w3.org/2000/svg" xmlns:xlink="http://www.w3.org/1999/xlink" xml:space="preserve" overflow="hidden"><g transform="translate(-386 -321)"><g><g><g><g><path d="M30.8333 6.24375C30.8333 7.73377 29.6254 8.94167 28.1354 8.94167 26.6454 8.94167 25.4375 7.73377 25.4375 6.24375 25.4375 4.75373 26.6454 3.54583 28.1354 3.54583 29.6254 3.54583 30.8333 4.75373 30.8333 6.24375Z" fill="#D9D9D9" fill-rule="nonzero" fill-opacity="1" transform="matrix(1 0 0 1.02703 387 322)"/><path d="M11.5625 6.24375C11.5625 7.73377 10.3546 8.94167 8.86458 8.94167 7.37456 8.94167 6.16667 7.73377 6.16667 6.24375 6.16667 4.75373 7.37456 3.54583 8.86458 3.54583 10.3546 3.54583 11.5625 4.75373 11.5625 6.24375Z" fill="#D9D9D9" fill-rule="nonzero" fill-opacity="1" transform="matrix(1 0 0 1.02703 387 322)"/><path d="M21.1979 6.24375C21.1979 7.73377 19.99 8.94167 18.5 8.94167 17.01 8.94167 15.8021 7.73377 15.8021 6.24375 15.8021 4.75373 17.01 3.54583 18.5 3.54583 19.99 3.54583 21.1979 4.75373 21.1979 6.24375Z" fill="#D9D9D9" fill-rule="nonzero" fill-opacity="1" transform="matrix(1 0 0 1.02703 387 322)"/><path d="M25.3604 18.8083 23.626 12.4104C23.549 12.1792 23.4333 11.9479 23.2792 11.7937 22.5469 11.0229 21.6219 10.4448 20.6198 10.0979 19.9646 9.86667 19.2708 9.75104 18.5385 9.75104 17.8062 9.75104 17.1125 9.86667 16.4573 10.0979 15.4167 10.4448 14.5302 11.0229 13.7979 11.7937 13.6438 11.9865 13.5281 12.1792 13.451 12.4104L11.7167 18.8083C11.5625 19.425 11.8708 20.1187 12.526 20.2729 12.6417 20.3115 12.7188 20.3115 12.8344 20.3115 13.3354 20.3115 13.7979 19.9646 13.9521 19.4635L15.4937 13.8365 15.4937 33.4542 17.8062 33.4542 17.8062 22.4312 19.3479 22.4312 19.3479 33.4156 21.6604 33.4156 21.6604 13.8365 23.2021 19.4635C23.3562 19.9646 23.8187 20.3115 24.3198 20.3115 24.4354 20.3115 24.5125 20.3115 24.6281 20.2729 25.1677 20.1187 25.5146 19.425 25.3604 18.8083Z" fill="#D9D9D9" fill-rule="nonzero" fill-opacity="1" transform="matrix(1 0 0 1.02703 387 322)"/><path d="M10.9073 18.6156 12.6417 12.2177C12.7188 11.8708 12.9115 11.5625 13.1042 11.2927 12.4875 10.7531 11.7167 10.3292 10.9073 10.0594 10.2521 9.82812 9.55833 9.7125 8.82604 9.7125 8.09375 9.7125 7.4 9.82812 6.74479 10.0594 5.70417 10.4062 4.81771 10.9844 4.08542 11.7552 3.93125 11.9479 3.81562 12.1406 3.73854 12.3719L2.00417 18.8083C1.85 19.425 2.15833 20.1187 2.81354 20.2729 2.92917 20.3115 3.00625 20.3115 3.12188 20.3115 3.62292 20.3115 4.08542 19.9646 4.23958 19.4635L5.78125 13.8365 5.78125 33.4542 8.09375 33.4542 8.09375 22.4312 9.63542 22.4312 9.63542 33.4156 11.9479 33.4156 11.9479 20.9281C11.1385 20.5427 10.676 19.5792 10.9073 18.6156Z" fill="#D9D9D9" fill-rule="nonzero" fill-opacity="1" transform="matrix(1 0 0 1.02703 387 322)"/><path d="M34.9958 18.8083 33.2229 12.4104C33.1458 12.1792 33.0302 11.9479 32.876 11.7937 32.1437 11.0229 31.2188 10.4448 30.2167 10.0979 29.5615 9.86667 28.8677 9.75104 28.1354 9.75104 27.4031 9.75104 26.7094 9.86667 26.0542 10.0979 25.2448 10.3677 24.5125 10.7917 23.8573 11.3312 24.0885 11.601 24.2427 11.9094 24.3198 12.2177L26.0542 18.6156C26.324 19.5792 25.8229 20.5427 25.0135 20.9281L25.0135 33.4542 27.326 33.4542 27.326 22.4312 28.8677 22.4312 28.8677 33.4156 31.1802 33.4156 31.1802 13.8365 32.7219 19.4635C32.876 19.9646 33.3385 20.3115 33.8396 20.3115 33.9552 20.3115 34.0323 20.3115 34.1479 20.2729 34.8031 20.1187 35.15 19.425 34.9958 18.8083Z" fill="#D9D9D9" fill-rule="nonzero" fill-opacity="1" transform="matrix(1 0 0 1.02703 387 322)"/></g></g></g></g></g></svg>